# xmcd
#
# Track frame offsets: 
#        150
#        14280
#        29882
#        41198
#        53776
#        64605
#        85881
#        109341
#        142904
#        176709
#        212122
#        215987
#        238639
#        249088
#        266153
#        282448
#        290972
#        292015
#        300539
#        317455
#
# Disc length: 4442 seconds
#
# Revision: 0
# Processed by: cddbd v1.5.2PL0 Copyright (c) Steve Scherf et al.
# Submitted via: ExactAudioCopy v1.0b1
#
DISCID=41115814
DTITLE=George Harrison  - Art Of Dying - Disc 3
DYEAR=1900
DGENRE=
TTITLE0=Cosmic Empire
TTITLE1=Dera Duhn
TTITLE2=Down To The River
TTITLE3=Get Back
TTITLE4=Going Down To Golders Green
TTITLE5=Gopala Krishna
TTITLE6=Hear Me Lord
TTITLE7=Hear Me Lord
TTITLE8=Hear Me Lord
TTITLE9=Hear Me Lord
TTITLE10=I Dig Love
TTITLE11=I Dig Love
TTITLE12=I Don't Want To Do It
TTITLE13=I Live For You
TTITLE14=I Live For You
TTITLE15=I'd Have You Anytime
TTITLE16=I'd Have You Anytime
TTITLE17=If Not For You
TTITLE18=If Not For You
TTITLE19=If Not For You
EXTD=
EXTT0=
EXTT1=
EXTT2=
EXTT3=
EXTT4=
EXTT5=
EXTT6=
EXTT7=
EXTT8=
EXTT9=
EXTT10=
EXTT11=
EXTT12=
EXTT13=
EXTT14=
EXTT15=
EXTT16=
EXTT17=
EXTT18=
EXTT19=
PLAYORDER=
